<svg width="155" height="155" viewBox="0 0 155 155" fill="none" xmlns="http://www.w3.org/2000/svg">
<path d="M77.5 2.9165V32.7497" stroke="#5F96CB" stroke-width="4" stroke-linecap="round" stroke-linejoin="round"/>
<path d="M130.238 24.7614L109.143 45.8565" stroke="#5F96CB" stroke-width="4" stroke-linecap="round" stroke-linejoin="round"/>
<path d="M152.083 77.4998H122.25" stroke="#5F96CB" stroke-width="4" stroke-linecap="round" stroke-linejoin="round"/>
<path d="M130.238 130.238L109.143 109.143" stroke="#5F96CB" stroke-width="4" stroke-linecap="round" stroke-linejoin="round"/>
<path d="M77.5 152.083V122.25" stroke="#5F96CB" stroke-width="4" stroke-linecap="round" stroke-linejoin="round"/>
<path d="M24.7617 130.238L45.8572 109.143" stroke="#5F96CB" stroke-width="4" stroke-linecap="round" stroke-linejoin="round"/>
<path d="M2.91699 77.4998H32.7503" stroke="#5F96CB" stroke-width="4" stroke-linecap="round" stroke-linejoin="round"/>
<path d="M24.7617 24.7614L45.8572 45.8565" stroke="#5F96CB" stroke-width="4" stroke-linecap="round" stroke-linejoin="round"/>
<path d="M48.96 8.59399L54.6682 22.3752" stroke="#5F96CB" stroke-width="4" stroke-linecap="round" stroke-linejoin="round"/>
<path d="M8.59473 48.9574L22.3759 54.666" stroke="#5F96CB" stroke-width="4" stroke-linecap="round" stroke-linejoin="round"/>
<path d="M8.59473 106.042L22.3759 100.334" stroke="#5F96CB" stroke-width="4" stroke-linecap="round" stroke-linejoin="round"/>
<path d="M48.96 146.406L54.6682 132.625" stroke="#5F96CB" stroke-width="4" stroke-linecap="round" stroke-linejoin="round"/>
<path d="M106.043 146.406L100.334 132.625" stroke="#5F96CB" stroke-width="4" stroke-linecap="round" stroke-linejoin="round"/>
<path d="M146.407 106.042L132.626 100.334" stroke="#5F96CB" stroke-width="4" stroke-linecap="round" stroke-linejoin="round"/>
<path d="M146.407 48.9574L132.626 54.666" stroke="#5F96CB" stroke-width="4" stroke-linecap="round" stroke-linejoin="round"/>
<path d="M106.043 8.59399L100.334 22.3752" stroke="#5F96CB" stroke-width="4" stroke-linecap="round" stroke-linejoin="round"/>
</svg>
